<?xml version="1.0" encoding="utf-8"?><!-- Uploaded to: SVG Repo, www.svgrepo.com, Generator: SVG Repo Mixer Tools -->
<svg fill="#000000" width="800px" height="800px" viewBox="0 0 24 24" id="smart-watch-heart" data-name="Line Color" xmlns="http://www.w3.org/2000/svg" class="icon line-color"><path id="secondary" d="M13.26,10.92a.82.82,0,0,1,0,1.16l-.33.33-.92.93-.94-.94-.33-.34a.82.82,0,0,1,0-1.16h0a.81.81,0,0,1,1.15,0L12,11l.11-.12A.81.81,0,0,1,13.26,10.92ZM8,3V5h8V3Zm8,18V19H8v2Z" style="fill: none; stroke: rgb(44, 169, 188); stroke-linecap: round; stroke-linejoin: round; stroke-width: 2;"></path><rect id="primary" x="6" y="5" width="12" height="14" rx="1" transform="translate(24 24) rotate(180)" style="fill: none; stroke: rgb(0, 0, 0); stroke-linecap: round; stroke-linejoin: round; stroke-width: 2;"></rect></svg>